<svg xmlns:xlink="http://www.w3.org/1999/xlink" xmlns="http://www.w3.org/2000/svg" xmlns:svg="http://www.w3.org/2000/svg" width="288" height="288" viewBox="0 0 288 288" version="1.2" baseProfile="tiny-ps"><title>Celest</title><desc>The Flutter cloud platform.</desc><defs><linearGradient x1="0" y1="0" x2="1" y2="0" id="celestGradient"><stop offset="0" id="stop76" stop-opacity="1" stop-color="#009bd8"/><stop offset="0.207564" stop-opacity="1" stop-color="#009bd8"/><stop offset="0.2902527" stop-opacity="1" stop-color="#009bd8"/><stop offset="0.7758" stop-opacity="1" stop-color="#30c5f4"/><stop offset="1" stop-opacity="1" stop-color="#30c5f4"/></linearGradient></defs><g><rect x="0" y="0" height="100%" width="100%" fill="#FFF"/><path d="m 101.786,164.157 -0.099,-0.022 c -1.278,-0.239 -2.556,-0.537 -3.937,-0.918 v 0 l -0.186,-0.055 c -0.369,-0.101 -0.73,-0.212 -1.084,-0.324 v 0 c -0.169,-0.051 -0.346,-0.108 -0.496,-0.159 v 0 c -0.338,-0.104 -0.677,-0.215 -0.997,-0.328 v 0 c -0.114,-0.038 -0.227,-0.079 -0.339,-0.121 v 0 l -0.259,-0.093 c -0.5,-0.185 -0.995,-0.376 -1.491,-0.572 v 0 c -0.272,-0.107 -0.544,-0.215 -0.769,-0.317 v 0 c -0.257,-0.102 -0.513,-0.215 -0.747,-0.324 v 0 c -0.297,-0.127 -0.593,-0.261 -0.858,-0.39 v 0 c -0.194,-0.087 -0.387,-0.177 -0.64,-0.296 v 0 c -0.476,-0.231 -0.947,-0.471 -1.4,-0.709 v 0 c -0.068,-0.034 -0.136,-0.072 -0.205,-0.11 v 0 l -0.11,-0.061 c -0.407,-0.215 -0.81,-0.441 -1.188,-0.658 v 0 c -0.154,-0.084 -0.302,-0.172 -0.441,-0.256 v 0 c -0.397,-0.233 -0.789,-0.471 -1.188,-0.716 v 0 l -0.266,-0.167 c -0.999,-0.639 -1.984,-1.32 -2.882,-1.992 v 0 c -0.045,-0.03 -0.087,-0.062 -0.19,-0.138 v 0 c -0.944,-0.71 -1.897,-1.488 -2.832,-2.312 v 0 c -0.639,-0.562 -1.295,-1.175 -2.007,-1.875 v 0 c -1.953,-1.931 -3.751,-4.05 -5.343,-6.297 v 0 c -2.892,-4.078 -5.097,-8.552 -6.56,-13.308 v 0 C 41.936,128.515 24.421,108.536 24.421,84.899 v 0 c 0,-26.008 21.158,-47.168 47.163,-47.168 v 0 c 16.368,0 31.336,8.321 40.037,22.258 v 0 c 2.339,3.745 4.139,7.797 5.35,12.043 v 0 c 1.086,3.818 1.551,7.645 2.001,11.357 v 0 c 0.676,5.556 1.315,10.804 3.893,15.835 v 0 c 3.165,6.173 10.723,16.529 25.803,16.529 v 0 c 11.778,0 20.094,-5.948 22.818,-16.321 v 0 l 0.126,-0.481 16.415,-6.765 -16.345,-6.735 -0.132,-0.467 C 168.682,74.872 159.345,67.808 148.844,67.808 v 0 c -6.477,0 -12.745,2.718 -17.199,7.457 v 0 l -2.362,2.514 -0.367,-1.928 c -0.266,-1.394 -0.555,-2.637 -0.886,-3.797 v 0 c -1.104,-3.876 -2.735,-7.601 -4.847,-11.073 v 0 l -0.456,-0.75 0.685,-0.549 c 7.202,-5.78 16.235,-8.963 25.432,-8.963 v 0 c 22.38,0 40.635,18.209 40.691,40.592 v 0 l 0.001,0.253 0.034,-0.013 -0.032,0.754 10e-4,0.504 -0.021,-0.009 -0.014,0.313 c -0.536,12.844 -7.5,25.216 -18.174,32.29 v 0 c -5.069,3.359 -10.793,5.471 -17.013,6.281 v 0 c -9.559,1.235 -19.682,-0.769 -28.506,-5.637 v 0 c -7.163,-3.956 -12.981,-9.59 -16.824,-16.292 v 0 c -4.901,-8.54 -6.258,-18.028 -7.353,-25.684 v 0 c -0.602,-4.181 -1.121,-7.792 -2.08,-10.411 v 0 C 95.396,62.351 84.155,54.753 71.584,54.753 v 0 c -16.619,0 -30.139,13.524 -30.139,30.146 v 0 c 0,14.045 9.95,26.427 23.659,29.445 v 0 c 4.342,0.954 8.939,0.927 13.296,-0.079 v 0 l 2.013,-0.461 -0.137,2.052 c -0.036,0.636 -0.057,1.287 -0.057,1.932 v 0 c 0,3.871 0.724,7.64 2.154,11.2 v 0 c 1.244,3.095 2.97,5.944 5.13,8.471 v 0 c 0.118,0.138 0.237,0.273 0.358,0.408 v 0 c 0.236,0.263 0.473,0.521 0.71,0.773 v 0 c 0.226,0.238 0.454,0.471 0.692,0.702 v 0 l 0.519,0.5 c 0.223,0.206 0.445,0.408 0.683,0.614 v 0 c 0.182,0.161 0.363,0.324 0.562,0.485 v 0 c 0.298,0.249 0.593,0.489 0.892,0.721 v 0 l 0.423,0.319 c 0.377,0.28 0.759,0.558 1.168,0.827 v 0 l 0.243,0.162 c 0.369,0.245 0.749,0.479 1.121,0.703 v 0 l 0.263,0.16 c 0.454,0.261 0.913,0.517 1.453,0.794 v 0 l 0.107,0.052 c 0.976,0.495 2,0.946 3.044,1.341 v 0 l 0.129,0.047 c 0.46,0.169 0.92,0.329 1.403,0.477 v 0 c 0.344,0.112 0.69,0.214 1.046,0.305 v 0 l 0.291,0.075 0.007,0.008 c 2.509,0.665 5.113,1.002 7.743,1.002 v 0 c 4.251,0 8.366,-0.871 12.279,-2.612 v 0 l 0.389,0.89 c 0.002,-10e-4 0.003,-10e-4 0.004,-0.002 v 0 l -0.276,-0.944 0.323,-0.144 c 0.189,-0.083 0.379,-0.166 0.563,-0.259 v 0 l 0.005,0.012 c 0.443,-0.218 0.893,-0.456 1.359,-0.719 v 0 c 0.164,-0.086 0.328,-0.179 0.522,-0.299 v 0 c 0.196,-0.11 0.387,-0.226 0.598,-0.358 v 0 c 0.184,-0.11 0.368,-0.225 0.604,-0.38 v 0 c 0.131,-0.084 0.265,-0.174 0.396,-0.262 v 0 l 0.187,-0.125 c 0.104,-0.076 0.213,-0.15 0.305,-0.213 v 0 l 0.394,-0.286 c 0.174,-0.123 0.338,-0.246 0.477,-0.351 v 0 l 0.204,-0.156 c 0.229,-0.178 0.459,-0.359 0.681,-0.541 v 0 c 0.628,-0.513 1.238,-1.056 1.816,-1.618 v 0 c 0.198,-0.188 0.39,-0.38 0.583,-0.573 v 0 l 0.457,-0.458 0.605,0.229 c 5.296,2.004 10.753,3.004 16.273,2.94 v 0 l 1.849,-0.018 -0.997,1.557 c -3.06,4.783 -6.861,8.908 -11.326,12.282 v 0 l -0.131,0.099 c -0.435,0.321 -0.875,0.636 -1.331,0.956 v 0 l -0.341,0.237 c -0.39,0.269 -0.791,0.527 -1.207,0.795 v 0 l -0.42,0.271 c -0.467,0.291 -0.943,0.57 -1.421,0.845 v 0 c -0.362,0.208 -0.723,0.406 -1.092,0.604 v 0 l -0.403,0.221 c -0.386,0.201 -0.777,0.397 -1.233,0.624 v 0 l -0.193,0.091 c -0.844,0.409 -1.734,0.805 -2.726,1.213 v 0 c -5.645,2.295 -11.637,3.458 -17.809,3.458 v 0 c -2.857,0 -5.731,-0.263 -8.541,-0.783 m 48.099,-62.913 c 0,-3.066 2.486,-5.551 5.551,-5.551 v 0 c 3.066,0 5.551,2.485 5.551,5.551 v 0 c 0,3.065 -2.485,5.55 -5.551,5.55 v 0 c -3.065,0 -5.551,-2.485 -5.551,-5.55" transform="matrix(1.3333333,0,0,-1.3333333,0,280)" fill="url('#celestGradient')" stroke="none"/></g></svg>