<svg width="81" height="28" viewBox="0 0 81 28" fill="none" xmlns="http://www.w3.org/2000/svg">
<rect width="81" height="28" rx="14" fill="#4798EB"/>
<path d="M12.133 17.3713C11.4397 17.3713 10.8464 17.2246 10.353 16.9312C9.85971 16.6379 9.47971 16.2212 9.21304 15.6812C8.95304 15.1412 8.82304 14.4979 8.82304 13.7512C8.82304 13.0112 8.95304 12.3712 9.21304 11.8312C9.47971 11.2912 9.85971 10.8746 10.353 10.5812C10.8464 10.2879 11.4397 10.1412 12.133 10.1412C12.6197 10.1412 13.0664 10.2179 13.473 10.3712C13.8864 10.5246 14.2364 10.7479 14.523 11.0412L14.203 11.7112C13.8964 11.4246 13.5764 11.2179 13.243 11.0912C12.9164 10.9579 12.553 10.8912 12.153 10.8912C11.3597 10.8912 10.753 11.1412 10.333 11.6412C9.91304 12.1412 9.70304 12.8446 9.70304 13.7512C9.70304 14.6646 9.91304 15.3712 10.333 15.8712C10.753 16.3712 11.3597 16.6213 12.153 16.6213C12.553 16.6213 12.9164 16.5579 13.243 16.4312C13.5764 16.2979 13.8964 16.0879 14.203 15.8012L14.523 16.4712C14.2364 16.7579 13.8864 16.9812 13.473 17.1412C13.0664 17.2946 12.6197 17.3713 12.133 17.3713ZM17.37 17.3713C16.8967 17.3713 16.4867 17.2679 16.14 17.0612C15.7933 16.8546 15.5233 16.5646 15.33 16.1912C15.1433 15.8112 15.05 15.3646 15.05 14.8512C15.05 14.3379 15.1433 13.8946 15.33 13.5212C15.5233 13.1412 15.7933 12.8479 16.14 12.6412C16.4867 12.4346 16.8967 12.3312 17.37 12.3312C17.8367 12.3312 18.2433 12.4346 18.59 12.6412C18.9433 12.8479 19.2133 13.1412 19.4 13.5212C19.5933 13.8946 19.69 14.3379 19.69 14.8512C19.69 15.3646 19.5933 15.8112 19.4 16.1912C19.2133 16.5646 18.9433 16.8546 18.59 17.0612C18.2433 17.2679 17.8367 17.3713 17.37 17.3713ZM17.37 16.7212C17.8233 16.7212 18.1867 16.5612 18.46 16.2412C18.7333 15.9146 18.87 15.4512 18.87 14.8512C18.87 14.2446 18.7333 13.7812 18.46 13.4612C18.1867 13.1412 17.8233 12.9812 17.37 12.9812C16.91 12.9812 16.5433 13.1412 16.27 13.4612C16.0033 13.7812 15.87 14.2446 15.87 14.8512C15.87 15.4512 16.0033 15.9146 16.27 16.2412C16.5433 16.5612 16.91 16.7212 17.37 16.7212ZM20.9266 17.2812V12.4212H21.7166V13.2412C21.8633 12.9479 22.0666 12.7246 22.3266 12.5712C22.5866 12.4112 22.89 12.3312 23.2366 12.3312C23.9966 12.3312 24.4833 12.6612 24.6966 13.3212C24.8433 13.0146 25.06 12.7746 25.3466 12.6012C25.6333 12.4212 25.9633 12.3312 26.3366 12.3312C27.4166 12.3312 27.9566 12.9712 27.9566 14.2512V17.2812H27.1466V14.2912C27.1466 13.8446 27.0666 13.5179 26.9066 13.3112C26.7533 13.0979 26.4966 12.9912 26.1366 12.9912C25.7433 12.9912 25.43 13.1312 25.1966 13.4112C24.9633 13.6912 24.8466 14.0646 24.8466 14.5312V17.2812H24.0366V14.2912C24.0366 13.8446 23.9566 13.5179 23.7966 13.3112C23.6433 13.0979 23.3866 12.9912 23.0266 12.9912C22.6266 12.9912 22.31 13.1312 22.0766 13.4112C21.85 13.6912 21.7366 14.0646 21.7366 14.5312V17.2812H20.9266ZM29.3711 11.2112V10.3012H30.3711V11.2112H29.3711ZM29.4711 17.2812V12.4212H30.2811V17.2812H29.4711ZM31.7953 17.2812V12.4212H32.5853V13.2512C32.7453 12.9446 32.972 12.7146 33.2653 12.5612C33.5586 12.4079 33.8886 12.3312 34.2553 12.3312C35.4086 12.3312 35.9853 12.9712 35.9853 14.2512V17.2812H35.1753V14.3012C35.1753 13.8479 35.0853 13.5179 34.9053 13.3112C34.732 13.0979 34.452 12.9912 34.0653 12.9912C33.6186 12.9912 33.262 13.1312 32.9953 13.4112C32.7353 13.6846 32.6053 14.0512 32.6053 14.5112V17.2812H31.7953ZM39.6289 19.1713C39.2089 19.1713 38.8122 19.1146 38.4389 19.0013C38.0722 18.8946 37.7456 18.7313 37.4589 18.5113L37.7289 17.9213C38.0289 18.1346 38.3256 18.2879 38.6189 18.3813C38.9189 18.4746 39.2422 18.5213 39.5889 18.5213C40.5489 18.5213 41.0289 18.0279 41.0289 17.0412V16.1812C40.8889 16.4879 40.6689 16.7312 40.3689 16.9112C40.0756 17.0846 39.7389 17.1712 39.3589 17.1712C38.9122 17.1712 38.5256 17.0679 38.1989 16.8612C37.8722 16.6546 37.6189 16.3712 37.4389 16.0112C37.2656 15.6446 37.1789 15.2212 37.1789 14.7412C37.1789 14.2612 37.2656 13.8412 37.4389 13.4812C37.6189 13.1146 37.8722 12.8312 38.1989 12.6312C38.5256 12.4312 38.9122 12.3312 39.3589 12.3312C39.7389 12.3312 40.0756 12.4179 40.3689 12.5912C40.6689 12.7646 40.8889 13.0012 41.0289 13.3012V12.4212H41.8189V16.9312C41.8189 17.6779 41.6322 18.2379 41.2589 18.6113C40.8922 18.9846 40.3489 19.1713 39.6289 19.1713ZM39.5089 16.5112C39.9756 16.5112 40.3456 16.3512 40.6189 16.0312C40.8922 15.7112 41.0289 15.2812 41.0289 14.7412C41.0289 14.2012 40.8922 13.7746 40.6189 13.4612C40.3456 13.1412 39.9756 12.9812 39.5089 12.9812C39.0489 12.9812 38.6822 13.1412 38.4089 13.4612C38.1356 13.7746 37.9989 14.2012 37.9989 14.7412C37.9989 15.2812 38.1356 15.7112 38.4089 16.0312C38.6822 16.3512 39.0489 16.5112 39.5089 16.5112ZM48.2966 17.3713C47.7433 17.3713 47.2433 17.3013 46.7966 17.1612C46.35 17.0146 45.9633 16.8046 45.6366 16.5312L45.9266 15.8712C46.2666 16.1312 46.6233 16.3246 46.9966 16.4512C47.37 16.5779 47.8033 16.6412 48.2966 16.6412C48.8966 16.6412 49.34 16.5312 49.6266 16.3112C49.92 16.0846 50.0666 15.7879 50.0666 15.4212C50.0666 15.1279 49.96 14.8946 49.7466 14.7212C49.54 14.5479 49.19 14.4112 48.6966 14.3112L47.6566 14.1012C47.03 13.9679 46.56 13.7512 46.2466 13.4512C45.94 13.1446 45.7866 12.7379 45.7866 12.2313C45.7866 11.8112 45.8933 11.4446 46.1066 11.1312C46.3266 10.8179 46.63 10.5746 47.0166 10.4012C47.4033 10.2279 47.85 10.1412 48.3566 10.1412C48.83 10.1412 49.27 10.2179 49.6766 10.3712C50.0833 10.5179 50.4266 10.7312 50.7066 11.0112L50.4166 11.6512C50.1166 11.3779 49.8 11.1812 49.4666 11.0612C49.1333 10.9346 48.76 10.8712 48.3466 10.8712C47.82 10.8712 47.4 10.9946 47.0866 11.2412C46.7733 11.4812 46.6166 11.8012 46.6166 12.2012C46.6166 12.5212 46.7133 12.7746 46.9066 12.9612C47.1066 13.1479 47.43 13.2846 47.8766 13.3712L48.9166 13.5912C49.59 13.7312 50.0866 13.9446 50.4066 14.2312C50.7333 14.5112 50.8966 14.8946 50.8966 15.3812C50.8966 15.7746 50.79 16.1212 50.5766 16.4212C50.37 16.7212 50.07 16.9546 49.6766 17.1212C49.29 17.2879 48.83 17.3713 48.2966 17.3713ZM54.079 17.3713C53.6056 17.3713 53.1956 17.2679 52.849 17.0612C52.5023 16.8546 52.2323 16.5646 52.039 16.1912C51.8523 15.8112 51.759 15.3646 51.759 14.8512C51.759 14.3379 51.8523 13.8946 52.039 13.5212C52.2323 13.1412 52.5023 12.8479 52.849 12.6412C53.1956 12.4346 53.6056 12.3312 54.079 12.3312C54.5456 12.3312 54.9523 12.4346 55.299 12.6412C55.6523 12.8479 55.9223 13.1412 56.109 13.5212C56.3023 13.8946 56.399 14.3379 56.399 14.8512C56.399 15.3646 56.3023 15.8112 56.109 16.1912C55.9223 16.5646 55.6523 16.8546 55.299 17.0612C54.9523 17.2679 54.5456 17.3713 54.079 17.3713ZM54.079 16.7212C54.5323 16.7212 54.8956 16.5612 55.169 16.2412C55.4423 15.9146 55.579 15.4512 55.579 14.8512C55.579 14.2446 55.4423 13.7812 55.169 13.4612C54.8956 13.1412 54.5323 12.9812 54.079 12.9812C53.619 12.9812 53.2523 13.1412 52.979 13.4612C52.7123 13.7812 52.579 14.2446 52.579 14.8512C52.579 15.4512 52.7123 15.9146 52.979 16.2412C53.2523 16.5612 53.619 16.7212 54.079 16.7212ZM59.6356 17.3713C59.1623 17.3713 58.7523 17.2679 58.4056 17.0612C58.059 16.8546 57.789 16.5646 57.5956 16.1912C57.409 15.8112 57.3156 15.3646 57.3156 14.8512C57.3156 14.3379 57.409 13.8946 57.5956 13.5212C57.789 13.1412 58.059 12.8479 58.4056 12.6412C58.7523 12.4346 59.1623 12.3312 59.6356 12.3312C60.1023 12.3312 60.509 12.4346 60.8556 12.6412C61.209 12.8479 61.479 13.1412 61.6656 13.5212C61.859 13.8946 61.9556 14.3379 61.9556 14.8512C61.9556 15.3646 61.859 15.8112 61.6656 16.1912C61.479 16.5646 61.209 16.8546 60.8556 17.0612C60.509 17.2679 60.1023 17.3713 59.6356 17.3713ZM59.6356 16.7212C60.089 16.7212 60.4523 16.5612 60.7256 16.2412C60.999 15.9146 61.1356 15.4512 61.1356 14.8512C61.1356 14.2446 60.999 13.7812 60.7256 13.4612C60.4523 13.1412 60.089 12.9812 59.6356 12.9812C59.1756 12.9812 58.809 13.1412 58.5356 13.4612C58.269 13.7812 58.1356 14.2446 58.1356 14.8512C58.1356 15.4512 58.269 15.9146 58.5356 16.2412C58.809 16.5612 59.1756 16.7212 59.6356 16.7212ZM63.1723 17.2812V12.4212H63.9623V13.2512C64.1223 12.9446 64.3489 12.7146 64.6423 12.5612C64.9356 12.4079 65.2656 12.3312 65.6323 12.3312C66.7856 12.3312 67.3623 12.9712 67.3623 14.2512V17.2812H66.5523V14.3012C66.5523 13.8479 66.4623 13.5179 66.2823 13.3112C66.1089 13.0979 65.8289 12.9912 65.4423 12.9912C64.9956 12.9912 64.6389 13.1312 64.3723 13.4112C64.1123 13.6846 63.9823 14.0512 63.9823 14.5112V17.2812H63.1723ZM68.9859 15.4412L68.7359 10.2312H69.7359L69.4859 15.4412H68.9859ZM68.7259 17.2812V16.2612H69.7459V17.2812H68.7259Z" fill="white"/>
</svg>
