<svg width="81" height="19" viewBox="0 0 81 19" fill="none" xmlns="http://www.w3.org/2000/svg">
<rect width="81" height="19" rx="9.5" fill="#4798EB"/>
<path d="M14.133 12.09C13.4397 12.09 12.8464 11.9433 12.353 11.65C11.8597 11.3567 11.4797 10.94 11.213 10.4C10.953 9.86 10.823 9.21667 10.823 8.47C10.823 7.73 10.953 7.09 11.213 6.55C11.4797 6.01 11.8597 5.59333 12.353 5.3C12.8464 5.00667 13.4397 4.86 14.133 4.86C14.6197 4.86 15.0664 4.93667 15.473 5.09C15.8864 5.24333 16.2364 5.46667 16.523 5.76L16.203 6.43C15.8964 6.14333 15.5764 5.93667 15.243 5.81C14.9164 5.67667 14.553 5.61 14.153 5.61C13.3597 5.61 12.753 5.86 12.333 6.36C11.913 6.86 11.703 7.56333 11.703 8.47C11.703 9.38333 11.913 10.09 12.333 10.59C12.753 11.09 13.3597 11.34 14.153 11.34C14.553 11.34 14.9164 11.2767 15.243 11.15C15.5764 11.0167 15.8964 10.8067 16.203 10.52L16.523 11.19C16.2364 11.4767 15.8864 11.7 15.473 11.86C15.0664 12.0133 14.6197 12.09 14.133 12.09ZM19.37 12.09C18.8967 12.09 18.4867 11.9867 18.14 11.78C17.7933 11.5733 17.5233 11.2833 17.33 10.91C17.1433 10.53 17.05 10.0833 17.05 9.57C17.05 9.05667 17.1433 8.61333 17.33 8.24C17.5233 7.86 17.7933 7.56667 18.14 7.36C18.4867 7.15333 18.8967 7.05 19.37 7.05C19.8367 7.05 20.2433 7.15333 20.59 7.36C20.9433 7.56667 21.2133 7.86 21.4 8.24C21.5933 8.61333 21.69 9.05667 21.69 9.57C21.69 10.0833 21.5933 10.53 21.4 10.91C21.2133 11.2833 20.9433 11.5733 20.59 11.78C20.2433 11.9867 19.8367 12.09 19.37 12.09ZM19.37 11.44C19.8233 11.44 20.1867 11.28 20.46 10.96C20.7333 10.6333 20.87 10.17 20.87 9.57C20.87 8.96333 20.7333 8.5 20.46 8.18C20.1867 7.86 19.8233 7.7 19.37 7.7C18.91 7.7 18.5433 7.86 18.27 8.18C18.0033 8.5 17.87 8.96333 17.87 9.57C17.87 10.17 18.0033 10.6333 18.27 10.96C18.5433 11.28 18.91 11.44 19.37 11.44ZM22.9266 12V7.14H23.7166V7.96C23.8633 7.66667 24.0666 7.44333 24.3266 7.29C24.5866 7.13 24.89 7.05 25.2366 7.05C25.9966 7.05 26.4833 7.38 26.6966 8.04C26.8433 7.73333 27.06 7.49333 27.3466 7.32C27.6333 7.14 27.9633 7.05 28.3366 7.05C29.4166 7.05 29.9566 7.69 29.9566 8.97V12H29.1466V9.01C29.1466 8.56333 29.0666 8.23667 28.9066 8.03C28.7533 7.81667 28.4966 7.71 28.1366 7.71C27.7433 7.71 27.43 7.85 27.1966 8.13C26.9633 8.41 26.8466 8.78333 26.8466 9.25V12H26.0366V9.01C26.0366 8.56333 25.9566 8.23667 25.7966 8.03C25.6433 7.81667 25.3866 7.71 25.0266 7.71C24.6266 7.71 24.31 7.85 24.0766 8.13C23.85 8.41 23.7366 8.78333 23.7366 9.25V12H22.9266ZM31.3711 5.93V5.02H32.3711V5.93H31.3711ZM31.4711 12V7.14H32.2811V12H31.4711ZM33.7953 12V7.14H34.5853V7.97C34.7453 7.66333 34.972 7.43333 35.2653 7.28C35.5586 7.12667 35.8886 7.05 36.2553 7.05C37.4086 7.05 37.9853 7.69 37.9853 8.97V12H37.1753V9.02C37.1753 8.56667 37.0853 8.23667 36.9053 8.03C36.732 7.81667 36.452 7.71 36.0653 7.71C35.6186 7.71 35.262 7.85 34.9953 8.13C34.7353 8.40333 34.6053 8.77 34.6053 9.23V12H33.7953ZM41.6289 13.89C41.2089 13.89 40.8122 13.8333 40.4389 13.72C40.0722 13.6133 39.7456 13.45 39.4589 13.23L39.7289 12.64C40.0289 12.8533 40.3256 13.0067 40.6189 13.1C40.9189 13.1933 41.2422 13.24 41.5889 13.24C42.5489 13.24 43.0289 12.7467 43.0289 11.76V10.9C42.8889 11.2067 42.6689 11.45 42.3689 11.63C42.0756 11.8033 41.7389 11.89 41.3589 11.89C40.9122 11.89 40.5256 11.7867 40.1989 11.58C39.8722 11.3733 39.6189 11.09 39.4389 10.73C39.2656 10.3633 39.1789 9.94 39.1789 9.46C39.1789 8.98 39.2656 8.56 39.4389 8.2C39.6189 7.83333 39.8722 7.55 40.1989 7.35C40.5256 7.15 40.9122 7.05 41.3589 7.05C41.7389 7.05 42.0756 7.13667 42.3689 7.31C42.6689 7.48333 42.8889 7.72 43.0289 8.02V7.14H43.8189V11.65C43.8189 12.3967 43.6322 12.9567 43.2589 13.33C42.8922 13.7033 42.3489 13.89 41.6289 13.89ZM41.5089 11.23C41.9756 11.23 42.3456 11.07 42.6189 10.75C42.8922 10.43 43.0289 10 43.0289 9.46C43.0289 8.92 42.8922 8.49333 42.6189 8.18C42.3456 7.86 41.9756 7.7 41.5089 7.7C41.0489 7.7 40.6822 7.86 40.4089 8.18C40.1356 8.49333 39.9989 8.92 39.9989 9.46C39.9989 10 40.1356 10.43 40.4089 10.75C40.6822 11.07 41.0489 11.23 41.5089 11.23ZM50.2966 12.09C49.7433 12.09 49.2433 12.02 48.7966 11.88C48.35 11.7333 47.9633 11.5233 47.6366 11.25L47.9266 10.59C48.2666 10.85 48.6233 11.0433 48.9966 11.17C49.37 11.2967 49.8033 11.36 50.2966 11.36C50.8966 11.36 51.34 11.25 51.6266 11.03C51.92 10.8033 52.0666 10.5067 52.0666 10.14C52.0666 9.84667 51.96 9.61333 51.7466 9.44C51.54 9.26667 51.19 9.13 50.6966 9.03L49.6566 8.82C49.03 8.68667 48.56 8.47 48.2466 8.17C47.94 7.86333 47.7866 7.45667 47.7866 6.95C47.7866 6.53 47.8933 6.16333 48.1066 5.85C48.3266 5.53667 48.63 5.29333 49.0166 5.12C49.4033 4.94667 49.85 4.86 50.3566 4.86C50.83 4.86 51.27 4.93667 51.6766 5.09C52.0833 5.23667 52.4266 5.45 52.7066 5.73L52.4166 6.37C52.1166 6.09667 51.8 5.9 51.4666 5.78C51.1333 5.65333 50.76 5.59 50.3466 5.59C49.82 5.59 49.4 5.71333 49.0866 5.96C48.7733 6.2 48.6166 6.52 48.6166 6.92C48.6166 7.24 48.7133 7.49333 48.9066 7.68C49.1066 7.86667 49.43 8.00333 49.8766 8.09L50.9166 8.31C51.59 8.45 52.0866 8.66333 52.4066 8.95C52.7333 9.23 52.8966 9.61333 52.8966 10.1C52.8966 10.4933 52.79 10.84 52.5766 11.14C52.37 11.44 52.07 11.6733 51.6766 11.84C51.29 12.0067 50.83 12.09 50.2966 12.09ZM56.079 12.09C55.6056 12.09 55.1956 11.9867 54.849 11.78C54.5023 11.5733 54.2323 11.2833 54.039 10.91C53.8523 10.53 53.759 10.0833 53.759 9.57C53.759 9.05667 53.8523 8.61333 54.039 8.24C54.2323 7.86 54.5023 7.56667 54.849 7.36C55.1956 7.15333 55.6056 7.05 56.079 7.05C56.5456 7.05 56.9523 7.15333 57.299 7.36C57.6523 7.56667 57.9223 7.86 58.109 8.24C58.3023 8.61333 58.399 9.05667 58.399 9.57C58.399 10.0833 58.3023 10.53 58.109 10.91C57.9223 11.2833 57.6523 11.5733 57.299 11.78C56.9523 11.9867 56.5456 12.09 56.079 12.09ZM56.079 11.44C56.5323 11.44 56.8956 11.28 57.169 10.96C57.4423 10.6333 57.579 10.17 57.579 9.57C57.579 8.96333 57.4423 8.5 57.169 8.18C56.8956 7.86 56.5323 7.7 56.079 7.7C55.619 7.7 55.2523 7.86 54.979 8.18C54.7123 8.5 54.579 8.96333 54.579 9.57C54.579 10.17 54.7123 10.6333 54.979 10.96C55.2523 11.28 55.619 11.44 56.079 11.44ZM61.6356 12.09C61.1623 12.09 60.7523 11.9867 60.4056 11.78C60.059 11.5733 59.789 11.2833 59.5956 10.91C59.409 10.53 59.3156 10.0833 59.3156 9.57C59.3156 9.05667 59.409 8.61333 59.5956 8.24C59.789 7.86 60.059 7.56667 60.4056 7.36C60.7523 7.15333 61.1623 7.05 61.6356 7.05C62.1023 7.05 62.509 7.15333 62.8556 7.36C63.209 7.56667 63.479 7.86 63.6656 8.24C63.859 8.61333 63.9556 9.05667 63.9556 9.57C63.9556 10.0833 63.859 10.53 63.6656 10.91C63.479 11.2833 63.209 11.5733 62.8556 11.78C62.509 11.9867 62.1023 12.09 61.6356 12.09ZM61.6356 11.44C62.089 11.44 62.4523 11.28 62.7256 10.96C62.999 10.6333 63.1356 10.17 63.1356 9.57C63.1356 8.96333 62.999 8.5 62.7256 8.18C62.4523 7.86 62.089 7.7 61.6356 7.7C61.1756 7.7 60.809 7.86 60.5356 8.18C60.269 8.5 60.1356 8.96333 60.1356 9.57C60.1356 10.17 60.269 10.6333 60.5356 10.96C60.809 11.28 61.1756 11.44 61.6356 11.44ZM65.1723 12V7.14H65.9623V7.97C66.1223 7.66333 66.3489 7.43333 66.6423 7.28C66.9356 7.12667 67.2656 7.05 67.6323 7.05C68.7856 7.05 69.3623 7.69 69.3623 8.97V12H68.5523V9.02C68.5523 8.56667 68.4623 8.23667 68.2823 8.03C68.1089 7.81667 67.8289 7.71 67.4423 7.71C66.9956 7.71 66.6389 7.85 66.3723 8.13C66.1123 8.40333 65.9823 8.77 65.9823 9.23V12H65.1723ZM70.9859 10.16L70.7359 4.95H71.7359L71.4859 10.16H70.9859ZM70.7259 12V10.98H71.7459V12H70.7259Z" fill="white"/>
</svg>
