<svg enable-background="new 0 0 512 512" viewBox="0 0 512 512" xmlns="http://www.w3.org/2000/svg"><path d="m330.443 256 136.765-136.765c14.058-14.058 14.058-36.85 0-50.908l-23.535-23.535c-14.058-14.058-36.85-14.058-50.908 0l-136.765 136.765-136.765-136.765c-14.058-14.058-36.85-14.058-50.908 0l-23.535 23.535c-14.058 14.058-14.058 36.85 0 50.908l136.765 136.765-136.765 136.765c-14.058 14.058-14.058 36.85 0 50.908l23.535 23.535c14.058 14.058 36.85 14.058 50.908 0l136.765-136.765 136.765 136.765c14.058 14.058 36.85 14.058 50.908 0l23.535-23.535c14.058-14.058 14.058-36.85 0-50.908z" fill="#ff473e"/></svg>