<svg width="45" height="45" viewBox="0 0 45 45" fill="none" xmlns="http://www.w3.org/2000/svg">
<g clip-path="url(#clip0_77_95)">
<path fill-rule="evenodd" clip-rule="evenodd" d="M22.4325 0C16.4833 0.000745752 10.7779 2.3644 6.57115 6.57115C2.3644 10.7779 0.000745752 16.4833 0 22.4325C0 32.3381 6.46875 40.7334 15.2747 43.7625C16.3772 43.9003 16.7878 43.2113 16.7878 42.66V38.8069C10.5975 40.185 9.22219 35.7806 9.22219 35.7806C8.2575 33.165 6.74438 32.4759 6.74438 32.4759C4.68 31.1006 6.87938 31.1006 6.87938 31.1006C9.08156 31.2384 10.3219 33.4406 10.3219 33.4406C12.3863 36.8803 15.5503 35.9156 16.7906 35.3672C16.9256 33.8541 17.6147 32.8922 18.1659 32.3409C13.2103 31.7897 7.98187 29.8631 7.98187 21.1922C7.98187 18.7172 8.80594 16.7878 10.3219 15.1369C10.1813 14.7234 9.35719 12.3862 10.5975 9.35719C10.5975 9.35719 12.5241 8.80594 16.7878 11.6972C18.5766 11.1459 20.5059 11.0081 22.4325 11.0081C24.3591 11.0081 26.2856 11.2837 28.0744 11.6972C32.3409 8.80875 34.2675 9.35719 34.2675 9.35719C35.505 12.3862 34.6781 14.7234 34.5403 15.2747C36.0559 16.9259 36.8918 19.0887 36.8803 21.33C36.8803 30.0009 31.6491 31.7897 26.6991 32.3409C27.5231 33.0272 28.2122 34.4025 28.2122 36.4669V42.66C28.2122 43.2113 28.6228 43.8975 29.7253 43.7625C34.186 42.2571 38.0607 39.3878 40.8017 35.5602C43.5427 31.7326 45.0113 27.1403 45 22.4325C44.8622 10.0463 34.8187 0 22.4325 0Z" fill="black"/>
</g>
<defs>
<clipPath id="clip0_77_95">
<rect width="45" height="45" fill="white"/>
</clipPath>
</defs>
</svg>
