<svg xmlns="http://www.w3.org/2000/svg" fill="none" class="sbui-icon" viewBox="0 0 16 16"><path fill="currentColor" fill-rule="evenodd" d="M15.666 4.135a2.01 2.01 0 0 0-1.415-1.423C13.003 2.375 8 2.375 8 2.375s-5.003 0-6.251.337A2.01 2.01 0 0 0 .334 4.135C0 5.391 0 8.011 0 8.011s0 2.62.334 3.877a1.98 1.98 0 0 0 1.415 1.4c1.248.337 6.251.337 6.251.337s5.003 0 6.251-.336a1.98 1.98 0 0 0 1.415-1.402C16 10.633 16 8.011 16 8.011s0-2.62-.334-3.876ZM6.364 10.39V5.632l4.181 2.38-4.181 2.378Z" clip-rule="evenodd"/></svg>